PathFileType	4	(X/Y/Z)	./resultDataOpenSim/trcMotMarkerGrf/sub10/qtm-05-03.trc
DataRate	CameraRate	NumFrames	NumMarkers	Units	OrigDataRate	OrigDataStartFrame	OrigNumFrames
250.000000	250.000000	6	24	m	250.000000	1	513
Frame#	Time	L.Toe.Tip			R.Toe.Tip			L.Ankle.Lat			R.Ankle.Lat			L.Ankle.Med			R.Ankle.Med			L.Heel			R.Heel			L.Knee.Lat			R.Knee.Lat			L.Knee.Med			R.Knee.Med			L.Thigh.Upper			R.Thigh.Upper			L.ASIS			R.ASIS			V.Sacral			L.Acromium			R.Acromium			C7			L.Elbow			R.Elbow			L.Wrist.Lat			R.Wrist.Lat
		X1	Y1	Z1	X2	Y2	Z2	X3	Y3	Z3	X4	Y4	Z4	X5	Y5	Z5	X6	Y6	Z6	X7	Y7	Z7	X8	Y8	Z8	X9	Y9	Z9	X10	Y10	Z10	X11	Y11	Z11	X12	Y12	Z12	X13	Y13	Z13	X14	Y14	Z14	X15	Y15	Z15	X16	Y16	Z16	X17	Y17	Z17	X18	Y18	Z18	X19	Y19	Z19	X20	Y20	Z20	X21	Y21	Z21	X22	Y22	Z22	X23	Y23	Z23	X24	Y24	Z24

1	0	-1.5259274	0.037760107	-0.20950531	-1.0157423	0.084566383	-0.020677174	-1.6594148	0.064442396	-0.23075786	-1.1537335	0.066712363	-0.027942603	-1.6592398	0.084168783	-0.14796906	-1.1214921	0.10336947	-0.10025506	NaN	NaN	NaN	-1.1792211	0.030996622	-0.093663886	-1.5397172	0.43356271	-0.27161917	-1.233172	0.45868645	0.0081291437	-1.539355	0.41193261	-0.14954262	-1.1966688	0.47017954	-0.1145065	-1.4402168	0.81543769	-0.33568748	-1.3835749	0.84601131	0.045503999	-1.3626699	0.91978454	-0.28165596	-1.3253746	0.93745801	-0.039211928	-1.540944	0.94169916	-0.12725385	-1.3741437	1.3982022	-0.30443692	-1.399476	1.390935	0.017149261	-1.4653908	1.4278786	-0.15266196	-1.4265401	1.0591028	-0.3857586	-1.5482039	1.0730814	0.056742816	-1.2417903	0.89347203	-0.37097712	-1.456641	0.85544734	0.11760266
2	0.004	-1.5259165	0.037727582	-0.20950568	-1.0013217	0.087399336	-0.020446804	-1.6592131	0.064656312	-0.23061637	-1.1391549	0.066734127	-0.026607783	-1.6578044	0.084798694	-0.1474316	-1.1081433	0.10408422	-0.099176545	NaN	NaN	NaN	-1.1645874	0.030586816	-0.092014492	-1.5368409	0.43299792	-0.27150373	-1.2279915	0.45676911	0.008738241	-1.5363931	0.4113317	-0.14927577	-1.1917015	0.46825326	-0.11428119	-1.435777	0.81442197	-0.33549912	-1.3756926	0.84494852	0.046275943	-1.3580512	0.9186192	-0.28141796	-1.3198102	0.93635345	-0.039131228	-1.5359038	0.94017667	-0.12659276	-1.3694551	1.3969156	-0.30426624	-1.395057	1.389657	0.017367139	-1.4608799	1.4265753	-0.15256359	-1.4204681	1.0571551	-0.38621551	-1.5445367	1.072168	0.056660699	-1.2336578	0.89368361	-0.36958537	-1.4532296	0.85450681	0.11853741
3	0.008	-1.525907	0.037692736	-0.20950694	-0.98723763	0.090194734	-0.020222635	-1.6590169	0.064891172	-0.23051471	-1.1247869	0.06684381	-0.025196666	-1.6561925	0.08549907	-0.14699833	-1.095056	0.10480808	-0.098106154	NaN	NaN	NaN	-1.1502208	0.030227295	-0.090267296	-1.5339069	0.43241997	-0.27137485	-1.2224904	0.45495338	0.0094242055	-1.5333274	0.41072942	-0.1490618	-1.1867464	0.46633192	-0.11404207	-1.4313973	0.81338421	-0.33531269	-1.3684009	0.84375419	0.046911267	-1.3534829	0.91742022	-0.2812088	-1.3142694	0.9352207	-0.039065562	-1.5308792	0.93862117	-0.12596936	-1.364795	1.3956173	-0.30408397	-1.3905863	1.3883484	0.017568904	-1.4563404	1.4252442	-0.15244259	-1.4144068	1.055238	-0.38667383	-1.5408952	1.0712375	0.056555871	-1.2255297	0.89389702	-0.36816606	-1.449561	0.85359347	0.11951515
4	0.012	-1.5258987	0.03765816	-0.20951011	-0.97359243	0.092961875	-0.019961342	-1.6588361	0.065176201	-0.23045693	-1.1107646	0.067088423	-0.023688164	-1.6546474	0.086181826	-0.14676184	-1.0823808	0.10554379	-0.097044429	NaN	NaN	NaN	-1.1362603	0.02993293	-0.088354457	-1.530899	0.43182455	-0.27123133	-1.2165825	0.45327007	0.010213894	-1.5301319	0.41011201	-0.14890722	-1.1817952	0.46442227	-0.11377628	-1.4271301	0.81230915	-0.33519428	-1.3614925	0.84245707	0.047462843	-1.3489687	0.916173	-0.28104141	-1.3087411	0.93403417	-0.03903252	-1.5258535	0.93701446	-0.12537141	-1.3601445	1.3942947	-0.30387877	-1.3860377	1.3870002	0.017766345	-1.4517501	1.4238847	-0.15227701	-1.4082844	1.0533695	-0.38690769	-1.5372417	1.0702625	0.056411284	-1.2173916	0.89411491	-0.3666936	-1.4456036	0.85270732	0.12054061
5	0.016	-1.5258924	0.037626003	-0.20951289	-0.96037535	0.095719104	-0.019611053	-1.658674	0.065532347	-0.23041734	-1.0971713	0.067471536	-0.022098762	-1.653414	0.086757946	-0.14671777	-1.0701964	0.10628235	-0.095985231	NaN	NaN	NaN	-1.1227409	0.029696942	-0.086264876	-1.5278329	0.43122104	-0.2710846	-1.2103347	0.45172603	0.011097915	-1.5268639	0.40945889	-0.14877899	-1.1768414	0.46254421	-0.1134668	-1.4229913	0.81119067	-0.33519478	-1.3548518	0.84107764	0.047957346	-1.3444495	0.9148949	-0.28089023	-1.3032078	0.93278212	-0.039035515	-1.5208016	0.93535788	-0.1247553	-1.3554752	1.3929469	-0.30364279	-1.3814068	1.3856221	0.017988638	-1.447114	1.4225136	-0.15206765	-1.4020374	1.0515357	-0.38671641	-1.533505	1.0692138	0.056212707	-1.2092606	0.89433769	-0.36516792	-1.4416759	0.85180369	0.12154563
6	0.02	-1.5258925	0.037594035	-0.20950886	-0.94759146	0.098489994	-0.019271275	-1.6585028	0.065962685	-0.23036113	-1.0840307	0.067963386	-0.020450864	-1.6523887	0.087262507	-0.14677959	-1.0585318	0.10701011	-0.094920638	NaN	NaN	NaN	-1.1096267	0.029534411	-0.084043749	-1.524718	0.43061985	-0.27094762	-1.203897	0.45031921	0.012038162	-1.5235679	0.4087667	-0.14864491	-1.1718772	0.46073083	-0.11309566	-1.4188761	0.81004972	-0.33523835	-1.348681	0.83958119	0.048342525	-1.3398327	0.9136238	-0.28070382	-1.2976649	0.93147758	-0.039054669	-1.5157141	0.93366377	-0.1241001	-1.3507731	1.3915839	-0.30337987	-1.3767191	1.3842265	0.018259019	-1.4424522	1.4211385	-0.15185338	-1.3956675	1.0497108	-0.38614755	-1.5296413	1.0680742	0.055945615	-1.2011727	0.89456742	-0.36360916	-1.4382054	0.85081738	0.1224359
